<svg xmlns="http://www.w3.org/2000/svg" viewBox="0 0 1000 610">
  <defs>
    <linearGradient id="bgGradient" x1="0%" y1="0%" x2="100%" y2="100%">
      <stop offset="0%" style="stop-color:#f8fafc"/>
      <stop offset="100%" style="stop-color:#e2e8f0"/>
    </linearGradient>
    <linearGradient id="cardGradient" x1="0%" y1="0%" x2="0%" y2="100%">
      <stop offset="0%" style="stop-color:#ffffff"/>
      <stop offset="100%" style="stop-color:#f8fafc"/>
    </linearGradient>
    <linearGradient id="headerGradient" x1="0%" y1="0%" x2="100%" y2="0%">
      <stop offset="0%" style="stop-color:#10b981"/>
      <stop offset="100%" style="stop-color:#059669"/>
    </linearGradient>
    <filter id="shadow" x="-20%" y="-20%" width="140%" height="140%">
      <feDropShadow dx="0" dy="4" stdDeviation="8" flood-opacity="0.1"/>
    </filter>
    <filter id="smallShadow" x="-10%" y="-10%" width="120%" height="120%">
      <feDropShadow dx="0" dy="2" stdDeviation="4" flood-opacity="0.08"/>
    </filter>
  </defs>

  <!-- Background -->
  <rect width="1000" height="610" fill="url(#bgGradient)"/>

  <!-- Main Card -->
  <rect x="20" y="20" width="960" height="570" rx="20" fill="url(#cardGradient)" filter="url(#shadow)"/>

  <!-- Header Bar -->
  <rect x="20" y="20" width="960" height="90" rx="20" fill="url(#headerGradient)"/>
  <rect x="20" y="90" width="960" height="20" fill="url(#headerGradient)"/>

  <!-- Persona Title -->
  <text x="500" y="75" font-family="Arial, sans-serif" font-size="32" font-weight="bold" fill="white" text-anchor="middle">PERSONA: LINH NGUYEN</text>

  <!-- ID Badge -->
  <rect x="870" y="45" width="90" height="30" rx="6" fill="rgba(255,255,255,0.2)"/>
  <text x="915" y="67" font-family="monospace" font-size="14" fill="white" text-anchor="middle">PER-01</text>

  <!-- Priority Badge -->
  <rect x="765" y="45" width="95" height="30" rx="6" fill="rgba(255,255,255,0.3)"/>
  <text x="812" y="67" font-family="Arial, sans-serif" font-size="13" font-weight="bold" fill="white" text-anchor="middle">PRIMARY</text>

  <!-- ==================== PROFILE SECTION ==================== -->

  <!-- Avatar Circle -->
  <circle cx="100" cy="200" r="55" fill="#fef3c7" stroke="#f59e0b" stroke-width="3"/>
  <!-- Avatar Face -->
  <circle cx="100" cy="190" r="22" fill="#fcd34d"/>
  <ellipse cx="100" cy="225" rx="26" ry="18" fill="#f59e0b"/>
  <!-- Hair -->
  <path d="M68 175 Q73 145 100 140 Q127 145 132 175 Q132 162 123 158 Q100 153 77 158 Q68 162 68 175" fill="#1f2937"/>
  <!-- Eyes -->
  <circle cx="91" cy="186" r="3.5" fill="#1f2937"/>
  <circle cx="109" cy="186" r="3.5" fill="#1f2937"/>
  <!-- Smile -->
  <path d="M90 198 Q100 207 110 198" stroke="#1f2937" stroke-width="2" fill="none"/>

  <!-- Profile Info -->
  <text x="175" y="150" font-family="Arial, sans-serif" font-size="13" fill="#64748b">ROLE</text>
  <text x="175" y="168" font-family="Arial, sans-serif" font-size="15" font-weight="bold" fill="#1e293b">Marketing Coordinator, 27 years old</text>

  <text x="175" y="195" font-family="Arial, sans-serif" font-size="13" fill="#64748b">LOCATION</text>
  <text x="175" y="213" font-family="Arial, sans-serif" font-size="15" font-weight="bold" fill="#1e293b">Ho Chi Minh City, Vietnam</text>

  <text x="175" y="240" font-family="Arial, sans-serif" font-size="13" fill="#64748b">EXPERIENCE</text>
  <text x="175" y="258" font-family="Arial, sans-serif" font-size="15" font-weight="bold" fill="#1e293b">Beginner - tried &amp; abandoned other apps</text>

  <!-- Quote Box -->
  <rect x="520" y="135" width="440" height="90" rx="10" fill="#ecfdf5" stroke="#10b981" stroke-width="2"/>
  <text x="540" y="158" font-family="Georgia, serif" font-size="13" font-style="italic" fill="#065f46">
    <tspan x="540" dy="0">"As a busy professional, I want to see my weekly calorie</tspan>
    <tspan x="540" dy="20">trends at a glance, so that I can adjust my weekend eating</tspan>
    <tspan x="540" dy="20">without obsessive daily checking."</tspan>
  </text>
  <text x="940" y="212" font-family="Arial, sans-serif" font-size="10" fill="#10b981" text-anchor="end">— user-insights.md</text>

  <!-- Bio -->
  <rect x="520" y="235" width="440" height="40" rx="8" fill="#f1f5f9"/>
  <text x="535" y="253" font-family="Arial, sans-serif" font-size="11" fill="#475569">
    <tspan x="535" dy="0">Works long hours, eats lunch at desk or phở with colleagues. Wants to be</tspan>
    <tspan x="535" dy="14">healthier but no time for complicated systems. Gave up on MyFitnessPal.</tspan>
  </text>

  <!-- Divider -->
  <line x1="40" y1="290" x2="960" y2="290" stroke="#e2e8f0" stroke-width="2"/>

  <!-- ==================== 5 MAIN SECTIONS ==================== -->

  <!-- SECTION 1: GOALS (Blue) -->
  <rect x="40" y="310" width="180" height="260" rx="12" fill="white" filter="url(#smallShadow)"/>
  <rect x="40" y="310" width="180" height="45" rx="12" fill="#dbeafe"/>
  <rect x="40" y="343" width="180" height="12" fill="#dbeafe"/>
  <circle cx="65" cy="332" r="15" fill="#3b82f6"/>
  <text x="65" y="338" font-family="Arial, sans-serif" font-size="16" fill="white" text-anchor="middle">✓</text>
  <text x="130" y="340" font-family="Arial, sans-serif" font-size="15" font-weight="bold" fill="#1e40af">GOALS</text>

  <circle cx="60" cy="385" r="10" fill="#3b82f6"/>
  <text x="60" y="390" font-family="Arial, sans-serif" font-size="11" fill="white" text-anchor="middle">1</text>
  <text x="78" y="382" font-family="Arial, sans-serif" font-size="11" fill="#334155">One-tap meal logging</text>
  <text x="78" y="395" font-family="Arial, sans-serif" font-size="9" fill="#64748b">at regular restaurants</text>

  <circle cx="60" cy="430" r="10" fill="#3b82f6"/>
  <text x="60" y="435" font-family="Arial, sans-serif" font-size="11" fill="white" text-anchor="middle">2</text>
  <text x="78" y="427" font-family="Arial, sans-serif" font-size="11" fill="#334155">Weekly trends</text>
  <text x="78" y="440" font-family="Arial, sans-serif" font-size="9" fill="#64748b">at a glance</text>

  <circle cx="60" cy="475" r="10" fill="#3b82f6"/>
  <text x="60" y="480" font-family="Arial, sans-serif" font-size="11" fill="white" text-anchor="middle">3</text>
  <text x="78" y="472" font-family="Arial, sans-serif" font-size="11" fill="#334155">Daily calorie target</text>
  <text x="78" y="485" font-family="Arial, sans-serif" font-size="9" fill="#64748b">based on height/weight</text>

  <circle cx="60" cy="520" r="10" fill="#3b82f6"/>
  <text x="60" y="525" font-family="Arial, sans-serif" font-size="11" fill="white" text-anchor="middle">4</text>
  <text x="78" y="517" font-family="Arial, sans-serif" font-size="11" fill="#334155">Track in &lt;30 seconds</text>
  <text x="78" y="530" font-family="Arial, sans-serif" font-size="9" fill="#64748b">per meal</text>

  <!-- SECTION 2: PAIN POINTS (Red) -->
  <rect x="235" y="310" width="180" height="260" rx="12" fill="white" filter="url(#smallShadow)"/>
  <rect x="235" y="310" width="180" height="45" rx="12" fill="#fee2e2"/>
  <rect x="235" y="343" width="180" height="12" fill="#fee2e2"/>
  <circle cx="260" cy="332" r="15" fill="#ef4444"/>
  <text x="260" y="338" font-family="Arial, sans-serif" font-size="16" fill="white" text-anchor="middle">✕</text>
  <text x="335" y="340" font-family="Arial, sans-serif" font-size="15" font-weight="bold" fill="#991b1b">PAIN POINTS</text>

  <circle cx="255" cy="385" r="10" fill="#ef4444"/>
  <text x="255" y="390" font-family="Arial, sans-serif" font-size="14" fill="white" text-anchor="middle">!</text>
  <text x="273" y="382" font-family="Arial, sans-serif" font-size="11" fill="#334155">Slow load times</text>
  <text x="273" y="395" font-family="Arial, sans-serif" font-size="9" fill="#64748b">10-12s = abandoned</text>

  <circle cx="255" cy="430" r="10" fill="#ef4444"/>
  <text x="255" y="435" font-family="Arial, sans-serif" font-size="14" fill="white" text-anchor="middle">!</text>
  <text x="273" y="427" font-family="Arial, sans-serif" font-size="11" fill="#334155">Wrong portions</text>
  <text x="273" y="440" font-family="Arial, sans-serif" font-size="9" fill="#64748b">cups vs bát cơm</text>

  <circle cx="255" cy="475" r="10" fill="#ef4444"/>
  <text x="255" y="480" font-family="Arial, sans-serif" font-size="14" fill="white" text-anchor="middle">!</text>
  <text x="273" y="472" font-family="Arial, sans-serif" font-size="11" fill="#334155">Interrupts social meals</text>
  <text x="273" y="485" font-family="Arial, sans-serif" font-size="9" fill="#64748b">complicated logging</text>

  <circle cx="255" cy="520" r="10" fill="#ef4444"/>
  <text x="255" y="525" font-family="Arial, sans-serif" font-size="14" fill="white" text-anchor="middle">!</text>
  <text x="273" y="517" font-family="Arial, sans-serif" font-size="11" fill="#334155">Offline issues</text>
  <text x="273" y="530" font-family="Arial, sans-serif" font-size="9" fill="#64748b">late-night logging fails</text>

  <!-- SECTION 3: BEHAVIOURS (Yellow/Orange) -->
  <rect x="430" y="310" width="180" height="260" rx="12" fill="white" filter="url(#smallShadow)"/>
  <rect x="430" y="310" width="180" height="45" rx="12" fill="#fef3c7"/>
  <rect x="430" y="343" width="180" height="12" fill="#fef3c7"/>
  <circle cx="455" cy="332" r="15" fill="#f59e0b"/>
  <text x="455" y="338" font-family="Arial, sans-serif" font-size="14" fill="white" text-anchor="middle">◉</text>
  <text x="530" y="340" font-family="Arial, sans-serif" font-size="15" font-weight="bold" fill="#92400e">BEHAVIOURS</text>

  <rect x="448" y="375" width="20" height="20" rx="4" fill="#f59e0b"/>
  <text x="458" y="390" font-family="Arial, sans-serif" font-size="12" fill="white" text-anchor="middle">R</text>
  <text x="476" y="382" font-family="Arial, sans-serif" font-size="11" fill="#334155">Regular restaurants</text>
  <text x="476" y="395" font-family="Arial, sans-serif" font-size="9" fill="#64748b">habitual eating patterns</text>

  <rect x="448" y="420" width="20" height="20" rx="4" fill="#f59e0b"/>
  <text x="458" y="435" font-family="Arial, sans-serif" font-size="12" fill="white" text-anchor="middle">L</text>
  <text x="476" y="427" font-family="Arial, sans-serif" font-size="11" fill="#334155">Late hours</text>
  <text x="476" y="440" font-family="Arial, sans-serif" font-size="9" fill="#64748b">works late, eats late</text>

  <rect x="448" y="465" width="20" height="20" rx="4" fill="#f59e0b"/>
  <text x="458" y="480" font-family="Arial, sans-serif" font-size="12" fill="white" text-anchor="middle">W</text>
  <text x="476" y="472" font-family="Arial, sans-serif" font-size="11" fill="#334155">Weekly review</text>
  <text x="476" y="485" font-family="Arial, sans-serif" font-size="9" fill="#64748b">not daily obsession</text>

  <rect x="448" y="510" width="20" height="20" rx="4" fill="#f59e0b"/>
  <text x="458" y="525" font-family="Arial, sans-serif" font-size="12" fill="white" text-anchor="middle">X</text>
  <text x="476" y="517" font-family="Arial, sans-serif" font-size="11" fill="#334155">App abandoner</text>
  <text x="476" y="530" font-family="Arial, sans-serif" font-size="9" fill="#64748b">friction = quit</text>

  <!-- SECTION 4: MOTIVATIONS (Purple) -->
  <rect x="625" y="310" width="180" height="260" rx="12" fill="white" filter="url(#smallShadow)"/>
  <rect x="625" y="310" width="180" height="45" rx="12" fill="#ede9fe"/>
  <rect x="625" y="343" width="180" height="12" fill="#ede9fe"/>
  <circle cx="650" cy="332" r="15" fill="#8b5cf6"/>
  <text x="650" y="338" font-family="Arial, sans-serif" font-size="14" fill="white" text-anchor="middle">♥</text>
  <text x="730" y="340" font-family="Arial, sans-serif" font-size="15" font-weight="bold" fill="#5b21b6">MOTIVATIONS</text>

  <rect x="643" y="375" width="20" height="20" rx="4" fill="#8b5cf6"/>
  <text x="653" y="390" font-family="Arial, sans-serif" font-size="12" fill="white" text-anchor="middle">🎯</text>
  <text x="671" y="382" font-family="Arial, sans-serif" font-size="11" fill="#334155">Clear benchmarks</text>
  <text x="671" y="395" font-family="Arial, sans-serif" font-size="9" fill="#64748b">goal-oriented mindset</text>

  <rect x="643" y="420" width="20" height="20" rx="4" fill="#8b5cf6"/>
  <text x="653" y="435" font-family="Arial, sans-serif" font-size="12" fill="white" text-anchor="middle">🌱</text>
  <text x="671" y="427" font-family="Arial, sans-serif" font-size="11" fill="#334155">Sustainable awareness</text>
  <text x="671" y="440" font-family="Arial, sans-serif" font-size="9" fill="#64748b">not restrictive dieting</text>

  <rect x="643" y="465" width="20" height="20" rx="4" fill="#8b5cf6"/>
  <text x="653" y="480" font-family="Arial, sans-serif" font-size="12" fill="white" text-anchor="middle">⚡</text>
  <text x="671" y="472" font-family="Arial, sans-serif" font-size="11" fill="#334155">Values efficiency</text>
  <text x="671" y="485" font-family="Arial, sans-serif" font-size="9" fill="#64748b">don't interrupt life</text>

  <rect x="643" y="510" width="150" height="45" rx="6" fill="#f5f3ff" stroke="#8b5cf6" stroke-width="1" stroke-dasharray="4"/>
  <text x="718" y="530" font-family="Arial, sans-serif" font-size="10" font-style="italic" fill="#6d28d9" text-anchor="middle">"Awareness rather</text>
  <text x="718" y="543" font-family="Arial, sans-serif" font-size="10" font-style="italic" fill="#6d28d9" text-anchor="middle">than punishment"</text>

  <!-- SECTION 5: TECHNICAL CONTEXT (Teal) -->
  <rect x="820" y="310" width="160" height="260" rx="12" fill="white" filter="url(#smallShadow)"/>
  <rect x="820" y="310" width="160" height="45" rx="12" fill="#ccfbf1"/>
  <rect x="820" y="343" width="160" height="12" fill="#ccfbf1"/>
  <circle cx="845" cy="332" r="15" fill="#14b8a6"/>
  <text x="845" y="338" font-family="Arial, sans-serif" font-size="14" fill="white" text-anchor="middle">⚙</text>
  <text x="915" y="340" font-family="Arial, sans-serif" font-size="15" font-weight="bold" fill="#0f766e">TECHNICAL</text>

  <rect x="838" y="375" width="20" height="20" rx="4" fill="#14b8a6"/>
  <text x="848" y="390" font-family="Arial, sans-serif" font-size="10" fill="white" text-anchor="middle">📱</text>
  <text x="866" y="382" font-family="Arial, sans-serif" font-size="11" fill="#334155">Mobile-first</text>
  <text x="866" y="395" font-family="Arial, sans-serif" font-size="9" fill="#64748b">portrait orientation</text>

  <rect x="838" y="420" width="20" height="20" rx="4" fill="#14b8a6"/>
  <text x="848" y="435" font-family="Arial, sans-serif" font-size="10" fill="white" text-anchor="middle">📶</text>
  <text x="866" y="427" font-family="Arial, sans-serif" font-size="11" fill="#334155">Spotty internet</text>
  <text x="866" y="440" font-family="Arial, sans-serif" font-size="9" fill="#64748b">needs offline mode</text>

  <rect x="838" y="465" width="20" height="20" rx="4" fill="#14b8a6"/>
  <text x="848" y="480" font-family="Arial, sans-serif" font-size="10" fill="white" text-anchor="middle">👆</text>
  <text x="866" y="472" font-family="Arial, sans-serif" font-size="11" fill="#334155">Touch input</text>
  <text x="866" y="485" font-family="Arial, sans-serif" font-size="9" fill="#64748b">one-handed use</text>

  <rect x="838" y="510" width="124" height="45" rx="6" fill="#f0fdfa" stroke="#14b8a6" stroke-width="1"/>
  <text x="900" y="528" font-family="Arial, sans-serif" font-size="9" font-weight="bold" fill="#0f766e" text-anchor="middle">KEY CONSTRAINT</text>
  <text x="900" y="543" font-family="Arial, sans-serif" font-size="10" fill="#115e59" text-anchor="middle">Works while eating</text>

  <!-- Footer with related info -->
  <text x="500" y="585" font-family="Arial, sans-serif" font-size="10" fill="#94a3b8" text-anchor="middle">Related: JTBD-001 | EPIC-001 (Core Logging) | EPIC-002 (Vietnamese Food Database) | Confidence: Moderate</text>

</svg>